<?xml version="1.0" encoding="UTF-8" standalone="no"?>
<!DOCTYPE svg PUBLIC "-//W3C//DTD SVG 1.1//EN" "http://www.w3.org/Graphics/SVG/1.1/DTD/svg11.dtd">
<!-- Created with Vectornator (http://vectornator.io/) -->
<svg height="100%" stroke-miterlimit="10" style="fill-rule:nonzero;clip-rule:evenodd;stroke-linecap:round;stroke-linejoin:round;" version="1.1" viewBox="0 0 1024 1024" width="100%" xml:space="preserve" xmlns="http://www.w3.org/2000/svg" xmlns:vectornator="http://vectornator.io" xmlns:xlink="http://www.w3.org/1999/xlink">
<defs/>
<clipPath id="ArtboardFrame">
<rect height="1024" width="1024" x="0" y="0"/>
</clipPath>
<g clip-path="url(#ArtboardFrame)" id="图层-2" vectornator:layerName="图层 2" visibility="hidden">
<path d="M514.334 699.019C504.847 699.019 497.155 706.802 497.155 716.403C497.155 726.005 504.847 733.788 514.334 733.788C523.822 733.788 531.513 726.005 531.513 716.403C531.513 706.802 523.822 699.019 514.334 699.019ZM514.334 281.794C504.847 281.794 497.155 289.577 497.155 299.178C497.155 308.78 504.847 316.563 514.334 316.563C523.822 316.563 531.513 308.78 531.513 299.178C531.513 289.577 523.822 281.794 514.334 281.794ZM514.334 90.5659C504.847 90.5659 497.155 98.3491 497.155 107.95C497.155 117.551 504.847 125.335 514.334 125.335C523.822 125.335 531.513 117.551 531.513 107.95C531.513 98.3491 523.822 90.5659 514.334 90.5659ZM514.334 890.247C504.847 890.247 497.155 898.03 497.155 907.632C497.155 917.233 504.847 925.016 514.334 925.016C523.822 925.016 531.513 917.233 531.513 907.632C531.513 898.03 523.822 890.247 514.334 890.247ZM909.448 490.407C899.961 490.407 892.269 498.19 892.269 507.791C892.269 517.392 899.961 525.175 909.448 525.175C918.936 525.175 926.627 517.392 926.627 507.791C926.627 498.19 918.936 490.407 909.448 490.407ZM119.22 490.407C109.732 490.407 102.041 498.19 102.041 507.791C102.041 517.392 109.732 525.175 119.22 525.175C128.708 525.175 136.399 517.392 136.399 507.791C136.399 498.19 128.708 490.407 119.22 490.407Z" fill="#000000" fill-rule="nonzero" opacity="1" stroke="none" vectornator:layerName="path"/>
<path d="M781.567 212.776C774.858 219.566 774.858 230.573 781.567 237.362C788.276 244.151 799.153 244.15 805.862 237.361C812.57 230.572 812.57 219.565 805.861 212.776C799.152 205.987 788.275 205.987 781.567 212.776Z" fill="#000000" fill-rule="nonzero" opacity="1" stroke="none" vectornator:layerName="path"/>
<path d="M222.789 778.213C216.081 785.003 216.081 796.01 222.79 802.799C229.499 809.588 240.376 809.587 247.084 802.798C253.793 796.009 253.793 785.002 247.084 778.213C240.375 771.424 229.498 771.424 222.789 778.213Z" fill="#000000" fill-rule="nonzero" opacity="1" stroke="none" vectornator:layerName="path"/>
<path d="M781.555 778.226C774.846 785.015 774.846 796.022 781.555 802.811C788.264 809.6 799.141 809.6 805.85 802.81C812.558 796.021 812.558 785.014 805.849 778.225C799.14 771.436 788.263 771.437 781.555 778.226Z" fill="#000000" fill-rule="nonzero" opacity="1" stroke="none" vectornator:layerName="path"/>
<path d="M222.802 212.764C216.093 219.553 216.093 230.56 222.802 237.349C229.511 244.138 240.388 244.138 247.097 237.349C253.805 230.56 253.805 219.553 247.096 212.764C240.387 205.975 229.51 205.975 222.802 212.764Z" fill="#000000" fill-rule="nonzero" opacity="1" stroke="none" vectornator:layerName="path"/>
<path d="M356.557 122.321C347.791 125.995 343.629 136.165 347.26 145.035C350.89 153.905 360.94 158.118 369.705 154.443C378.47 150.769 382.633 140.6 379.002 131.73C375.371 122.859 365.322 118.647 356.557 122.321Z" fill="#000000" fill-rule="nonzero" opacity="1" stroke="none" vectornator:layerName="path"/>
<path d="M658.979 861.114C650.214 864.789 646.051 874.958 649.682 883.828C653.313 892.699 663.362 896.911 672.127 893.237C680.893 889.562 685.055 879.393 681.424 870.523C677.794 861.653 667.745 857.44 658.979 861.114Z" fill="#000000" fill-rule="nonzero" opacity="1" stroke="none" vectornator:layerName="path"/>
<path d="M872.797 338.691C864.031 342.365 859.869 352.535 863.5 361.405C867.13 370.275 877.179 374.488 885.945 370.813C894.71 367.139 898.873 356.97 895.242 348.1C891.611 339.229 881.562 335.017 872.797 338.691Z" fill="#000000" fill-rule="nonzero" opacity="1" stroke="none" vectornator:layerName="path"/>
<path d="M142.738 644.738C133.973 648.412 129.81 658.581 133.441 667.452C137.072 676.322 147.121 680.534 155.886 676.86C164.652 673.186 168.814 663.016 165.183 654.146C161.552 645.276 151.503 641.064 142.738 644.738Z" fill="#000000" fill-rule="nonzero" opacity="1" stroke="none" vectornator:layerName="path"/>
<path d="M649.666 131.695C646.035 140.565 650.198 150.734 658.963 154.409C667.729 158.083 677.778 153.87 681.409 145C685.039 136.13 680.877 125.961 672.111 122.286C663.346 118.612 653.297 122.824 649.666 131.695Z" fill="#000000" fill-rule="nonzero" opacity="1" stroke="none" vectornator:layerName="path"/>
<path d="M347.27 870.528C343.64 879.398 347.802 889.568 356.567 893.242C365.333 896.916 375.382 892.704 379.013 883.833C382.644 874.963 378.481 864.794 369.716 861.12C360.95 857.446 350.901 861.658 347.27 870.528Z" fill="#000000" fill-rule="nonzero" opacity="1" stroke="none" vectornator:layerName="path"/>
<path d="M863.518 654.118C859.887 662.988 864.05 673.158 872.815 676.832C881.581 680.506 891.63 676.294 895.261 667.423C898.891 658.553 894.729 648.384 885.963 644.71C877.198 641.035 867.149 645.248 863.518 654.118Z" fill="#000000" fill-rule="nonzero" opacity="1" stroke="none" vectornator:layerName="path"/>
<path d="M133.418 348.105C129.788 356.975 133.95 367.144 142.716 370.819C151.481 374.493 161.53 370.281 165.161 361.41C168.792 352.54 164.629 342.371 155.864 338.697C147.098 335.022 137.049 339.235 133.418 348.105Z" fill="#000000" fill-rule="nonzero" opacity="1" stroke="none" vectornator:layerName="path"/>
<path d="M433.916 98.5823C424.61 100.455 418.567 109.606 420.417 119.023C422.267 128.44 431.311 134.556 440.616 132.683C449.922 130.811 455.965 121.659 454.115 112.242C452.265 102.826 443.221 96.7098 433.916 98.5823Z" fill="#000000" fill-rule="nonzero" opacity="1" stroke="none" vectornator:layerName="path"/>
<path d="M588.087 882.905C578.781 884.778 572.738 893.929 574.588 903.346C576.438 912.763 585.482 918.879 594.787 917.006C604.093 915.134 610.136 905.982 608.286 896.565C606.436 887.149 597.392 881.033 588.087 882.905Z" fill="#000000" fill-rule="nonzero" opacity="1" stroke="none" vectornator:layerName="path"/>
<path d="M898.528 412.734C889.223 414.607 883.179 423.758 885.03 433.175C886.88 442.592 895.924 448.708 905.229 446.835C914.534 444.963 920.578 435.811 918.728 426.395C916.877 416.978 907.834 410.862 898.528 412.734Z" fill="#000000" fill-rule="nonzero" opacity="1" stroke="none" vectornator:layerName="path"/>
<path d="M123.474 568.753C114.168 570.626 108.125 579.777 109.975 589.194C111.825 598.611 120.869 604.727 130.174 602.854C139.48 600.982 145.523 591.83 143.673 582.413C141.823 572.997 132.779 566.881 123.474 568.753Z" fill="#000000" fill-rule="nonzero" opacity="1" stroke="none" vectornator:layerName="path"/>
<path d="M719.561 165.637C714.29 173.62 716.412 184.416 724.301 189.75C732.189 195.084 742.858 192.937 748.129 184.954C753.4 176.971 751.278 166.175 743.389 160.841C735.5 155.507 724.832 157.654 719.561 165.637Z" fill="#000000" fill-rule="nonzero" opacity="1" stroke="none" vectornator:layerName="path"/>
<path d="M280.56 830.562C275.289 838.545 277.411 849.34 285.299 854.674C293.188 860.008 303.856 857.861 309.127 849.878C314.398 841.895 312.276 831.099 304.387 825.765C296.499 820.431 285.831 822.579 280.56 830.562Z" fill="#000000" fill-rule="nonzero" opacity="1" stroke="none" vectornator:layerName="path"/>
<path d="M828.593 720.226C823.322 728.209 825.444 739.005 833.332 744.339C841.221 749.673 851.889 747.525 857.16 739.542C862.431 731.559 860.309 720.764 852.42 715.43C844.532 710.095 833.864 712.243 828.593 720.226Z" fill="#000000" fill-rule="nonzero" opacity="1" stroke="none" vectornator:layerName="path"/>
<path d="M171.55 275.98C166.279 283.963 168.401 294.758 176.29 300.092C184.178 305.427 194.847 303.279 200.118 295.296C205.389 287.313 203.267 276.517 195.378 271.183C187.489 265.849 176.821 267.997 171.55 275.98Z" fill="#000000" fill-rule="nonzero" opacity="1" stroke="none" vectornator:layerName="path"/>
<path d="M285.282 160.855C277.393 166.189 275.271 176.985 280.543 184.968C285.814 192.951 296.482 195.099 304.37 189.764C312.259 184.43 314.381 173.635 309.11 165.652C303.839 157.669 293.171 155.521 285.282 160.855Z" fill="#000000" fill-rule="nonzero" opacity="1" stroke="none" vectornator:layerName="path"/>
<path d="M724.331 825.754C716.443 831.089 714.321 841.884 719.592 849.867C724.863 857.85 735.531 859.998 743.419 854.664C751.308 849.33 753.43 838.534 748.159 830.551C742.888 822.568 732.22 820.42 724.331 825.754Z" fill="#000000" fill-rule="nonzero" opacity="1" stroke="none" vectornator:layerName="path"/>
<path d="M833.326 271.154C825.438 276.488 823.316 287.284 828.587 295.267C833.858 303.25 844.526 305.398 852.415 300.063C860.303 294.729 862.425 283.934 857.154 275.951C851.883 267.968 841.215 265.82 833.326 271.154Z" fill="#000000" fill-rule="nonzero" opacity="1" stroke="none" vectornator:layerName="path"/>
<path d="M176.287 715.455C168.398 720.79 166.276 731.585 171.547 739.568C176.818 747.551 187.486 749.699 195.375 744.365C203.264 739.03 205.386 728.235 200.115 720.252C194.844 712.269 184.176 710.121 176.287 715.455Z" fill="#000000" fill-rule="nonzero" opacity="1" stroke="none" vectornator:layerName="path"/>
<path d="M574.584 112.228C572.733 121.645 578.776 130.797 588.081 132.67C597.386 134.544 606.43 128.429 608.281 119.012C610.132 109.595 604.09 100.443 594.784 98.5699C585.479 96.6966 576.435 102.812 574.584 112.228Z" fill="#000000" fill-rule="nonzero" opacity="1" stroke="none" vectornator:layerName="path"/>
<path d="M420.434 896.559C418.583 905.975 424.626 915.128 433.932 917.001C443.237 918.874 452.281 912.759 454.132 903.343C455.983 893.926 449.94 884.774 440.635 882.9C431.33 881.027 422.286 887.142 420.434 896.559Z" fill="#000000" fill-rule="nonzero" opacity="1" stroke="none" vectornator:layerName="path"/>
<path d="M885.023 582.389C883.172 591.805 889.215 600.958 898.52 602.831C907.826 604.704 916.87 598.589 918.721 589.172C920.572 579.756 914.529 570.604 905.224 568.73C895.919 566.857 886.874 572.972 885.023 582.389Z" fill="#000000" fill-rule="nonzero" opacity="1" stroke="none" vectornator:layerName="path"/>
<path d="M109.964 426.395C108.113 435.812 114.156 444.964 123.461 446.837C132.767 448.711 141.811 442.596 143.662 433.179C145.513 423.762 139.47 414.61 130.165 412.737C120.859 410.864 111.815 416.979 109.964 426.395Z" fill="#000000" fill-rule="nonzero" opacity="1" stroke="none" vectornator:layerName="path"/>
<path d="M308.188 490.407C298.7 490.407 291.009 498.19 291.009 507.791C291.009 517.392 298.7 525.175 308.188 525.175C317.675 525.175 325.367 517.392 325.367 507.791C325.367 498.19 317.675 490.407 308.188 490.407ZM720.481 490.407C710.993 490.407 703.302 498.19 703.302 507.791C703.302 517.392 710.993 525.175 720.481 525.175C729.968 525.175 737.66 517.392 737.66 507.791C737.66 498.19 729.968 490.407 720.481 490.407ZM514.334 490.407C504.847 490.407 497.155 498.19 497.155 507.791C497.155 517.392 504.847 525.175 514.334 525.175C523.822 525.175 531.513 517.392 531.513 507.791C531.513 498.19 523.822 490.407 514.334 490.407ZM565.871 438.253C556.383 438.253 548.692 446.037 548.692 455.638C548.692 465.239 556.383 473.022 565.871 473.022C575.358 473.022 583.05 465.239 583.05 455.638C583.05 446.037 575.358 438.253 565.871 438.253ZM617.407 386.1C607.92 386.1 600.229 393.884 600.229 403.485C600.229 413.086 607.92 420.869 617.407 420.869C626.895 420.869 634.586 413.086 634.586 403.485C634.586 393.884 626.895 386.1 617.407 386.1ZM703.302 299.178C693.814 299.178 686.123 306.962 686.123 316.563C686.123 326.164 693.814 333.947 703.302 333.947C712.789 333.947 720.481 326.164 720.481 316.563C720.481 306.962 712.789 299.178 703.302 299.178ZM754.838 247.025C745.351 247.025 737.66 254.809 737.66 264.41C737.66 274.011 745.351 281.794 754.838 281.794C764.326 281.794 772.017 274.011 772.017 264.41C772.017 254.809 764.326 247.025 754.838 247.025ZM840.733 160.103C831.245 160.103 823.554 167.887 823.554 177.488C823.554 187.089 831.245 194.872 840.733 194.872C850.22 194.872 857.912 187.089 857.912 177.488C857.912 167.887 850.22 160.103 840.733 160.103ZM892.269 107.95C882.782 107.95 875.091 115.734 875.091 125.335C875.091 134.936 882.782 142.719 892.269 142.719C901.757 142.719 909.448 134.936 909.448 125.335C909.448 115.734 901.757 107.95 892.269 107.95ZM943.806 55.7971C934.318 55.7971 926.627 63.5804 926.627 73.1815C926.627 82.7826 934.318 90.5659 943.806 90.5659C953.294 90.5659 960.985 82.7826 960.985 73.1815C960.985 63.5804 953.294 55.7971 943.806 55.7971ZM462.798 542.56C453.31 542.56 445.619 550.343 445.619 559.944C445.619 569.545 453.31 577.328 462.798 577.328C472.285 577.328 479.976 569.545 479.976 559.944C479.976 550.343 472.285 542.56 462.798 542.56ZM411.261 594.713C401.773 594.713 394.082 602.496 394.082 612.097C394.082 621.698 401.773 629.482 411.261 629.482C420.749 629.482 428.44 621.698 428.44 612.097C428.44 602.496 420.749 594.713 411.261 594.713ZM325.367 681.635C315.879 681.635 308.188 689.418 308.188 699.019C308.188 708.62 315.879 716.403 325.367 716.403C334.854 716.403 342.545 708.62 342.545 699.019C342.545 689.418 334.854 681.635 325.367 681.635ZM273.83 733.788C264.342 733.788 256.651 741.571 256.651 751.172C256.651 760.773 264.342 768.557 273.83 768.557C283.318 768.557 291.009 760.773 291.009 751.172C291.009 741.571 283.318 733.788 273.83 733.788ZM187.935 820.71C178.448 820.71 170.757 828.493 170.757 838.094C170.757 847.695 178.448 855.478 187.935 855.478C197.423 855.478 205.114 847.695 205.114 838.094C205.114 828.493 197.423 820.71 187.935 820.71ZM136.399 872.863C126.911 872.863 119.22 880.646 119.22 890.247C119.22 899.848 126.911 907.632 136.399 907.632C145.886 907.632 153.578 899.848 153.578 890.247C153.578 880.646 145.886 872.863 136.399 872.863ZM84.8622 925.016C75.3746 925.016 67.6834 932.799 67.6834 942.4C67.6834 952.001 75.3746 959.785 84.8622 959.785C94.3499 959.785 102.041 952.001 102.041 942.4C102.041 932.799 94.3499 925.016 84.8622 925.016ZM462.798 438.253C453.31 438.253 445.619 446.037 445.619 455.638C445.619 465.239 453.31 473.022 462.798 473.022C472.285 473.022 479.976 465.239 479.976 455.638C479.976 446.037 472.285 438.253 462.798 438.253ZM411.261 386.1C401.773 386.1 394.082 393.884 394.082 403.485C394.082 413.086 401.773 420.869 411.261 420.869C420.749 420.869 428.44 413.086 428.44 403.485C428.44 393.884 420.749 386.1 411.261 386.1ZM325.367 299.178C315.879 299.178 308.188 306.962 308.188 316.563C308.188 326.164 315.879 333.947 325.367 333.947C334.854 333.947 342.545 326.164 342.545 316.563C342.545 306.962 334.854 299.178 325.367 299.178ZM273.83 247.025C264.342 247.025 256.651 254.809 256.651 264.41C256.651 274.011 264.342 281.794 273.83 281.794C283.318 281.794 291.009 274.011 291.009 264.41C291.009 254.809 283.318 247.025 273.83 247.025ZM187.935 160.103C178.448 160.103 170.757 167.887 170.757 177.488C170.757 187.089 178.448 194.872 187.935 194.872C197.423 194.872 205.114 187.089 205.114 177.488C205.114 167.887 197.423 160.103 187.935 160.103ZM136.399 107.95C126.911 107.95 119.22 115.734 119.22 125.335C119.22 134.936 126.911 142.719 136.399 142.719C145.886 142.719 153.578 134.936 153.578 125.335C153.578 115.734 145.886 107.95 136.399 107.95ZM84.8622 55.7971C75.3746 55.7971 67.6834 63.5804 67.6834 73.1815C67.6834 82.7826 75.3746 90.5659 84.8622 90.5659C94.3499 90.5659 102.041 82.7826 102.041 73.1815C102.041 63.5804 94.3499 55.7971 84.8622 55.7971ZM565.871 542.56C556.383 542.56 548.692 550.343 548.692 559.944C548.692 569.545 556.383 577.328 565.871 577.328C575.358 577.328 583.05 569.545 583.05 559.944C583.05 550.343 575.358 542.56 565.871 542.56ZM617.407 594.713C607.92 594.713 600.229 602.496 600.229 612.097C600.229 621.698 607.92 629.482 617.407 629.482C626.895 629.482 634.586 621.698 634.586 612.097C634.586 602.496 626.895 594.713 617.407 594.713ZM703.302 681.635C693.814 681.635 686.123 689.418 686.123 699.019C686.123 708.62 693.814 716.403 703.302 716.403C712.789 716.403 720.481 708.62 720.481 699.019C720.481 689.418 712.789 681.635 703.302 681.635ZM754.838 733.788C745.351 733.788 737.66 741.571 737.66 751.172C737.66 760.773 745.351 768.557 754.838 768.557C764.326 768.557 772.017 760.773 772.017 751.172C772.017 741.571 764.326 733.788 754.838 733.788ZM840.733 820.71C831.245 820.71 823.554 828.493 823.554 838.094C823.554 847.695 831.245 855.478 840.733 855.478C850.22 855.478 857.912 847.695 857.912 838.094C857.912 828.493 850.22 820.71 840.733 820.71ZM892.269 872.863C882.782 872.863 875.091 880.646 875.091 890.247C875.091 899.848 882.782 907.632 892.269 907.632C901.757 907.632 909.448 899.848 909.448 890.247C909.448 880.646 901.757 872.863 892.269 872.863ZM943.806 925.016C934.318 925.016 926.627 932.799 926.627 942.4C926.627 952.001 934.318 959.785 943.806 959.785C953.294 959.785 960.985 952.001 960.985 942.4C960.985 932.799 953.294 925.016 943.806 925.016Z" fill="#000000" fill-rule="nonzero" opacity="1" stroke="none" vectornator:layerName="path"/>
<path d="M356.407 642.998C349.698 649.787 349.698 660.794 356.407 667.583C363.116 674.372 373.993 674.372 380.702 667.583C387.41 660.793 387.41 649.786 380.701 642.997C373.992 636.208 363.115 636.209 356.407 642.998Z" fill="#000000" fill-rule="nonzero" opacity="1" stroke="none" vectornator:layerName="path"/>
<path d="M647.949 347.992C641.241 354.781 641.241 365.788 647.95 372.577C654.659 379.366 665.536 379.366 672.244 372.577C678.953 365.788 678.953 354.781 672.244 347.992C665.535 341.203 654.658 341.203 647.949 347.992Z" fill="#000000" fill-rule="nonzero" opacity="1" stroke="none" vectornator:layerName="path"/>
<path d="M356.419 347.98C349.71 354.769 349.71 365.776 356.419 372.565C363.128 379.354 374.005 379.354 380.714 372.565C387.423 365.775 387.422 354.768 380.713 347.979C374.005 341.19 363.128 341.191 356.419 347.98Z" fill="#000000" fill-rule="nonzero" opacity="1" stroke="none" vectornator:layerName="path"/>
<path d="M647.937 643.01C641.229 649.799 641.229 660.806 647.938 667.595C654.647 674.384 665.524 674.384 672.232 667.595C678.941 660.806 678.941 649.799 672.232 643.01C665.523 636.221 654.646 636.221 647.937 643.01Z" fill="#000000" fill-rule="nonzero" opacity="1" stroke="none" vectornator:layerName="path"/>
<path d="M586.663 684.453C577.897 688.127 573.735 698.297 577.365 707.167C580.996 716.037 591.045 720.249 599.811 716.575C608.576 712.901 612.739 702.732 609.108 693.861C605.477 684.991 595.428 680.779 586.663 684.453Z" fill="#000000" fill-rule="nonzero" opacity="1" stroke="none" vectornator:layerName="path"/>
<path d="M428.879 298.975C420.113 302.649 415.951 312.818 419.581 321.688C423.212 330.559 433.261 334.771 442.027 331.097C450.792 327.423 454.955 317.253 451.324 308.383C447.693 299.513 437.644 295.3 428.879 298.975Z" fill="#000000" fill-rule="nonzero" opacity="1" stroke="none" vectornator:layerName="path"/>
<path d="M317.31 571.55C308.544 575.224 304.382 585.393 308.013 594.263C311.643 603.134 321.692 607.346 330.458 603.672C339.223 599.998 343.386 589.828 339.755 580.958C336.124 572.088 326.075 567.875 317.31 571.55Z" fill="#000000" fill-rule="nonzero" opacity="1" stroke="none" vectornator:layerName="path"/>
<path d="M698.232 411.878C689.466 415.552 685.304 425.722 688.934 434.592C692.565 443.462 702.614 447.675 711.38 444C720.145 440.326 724.308 430.157 720.677 421.287C717.046 412.416 706.997 408.204 698.232 411.878Z" fill="#000000" fill-rule="nonzero" opacity="1" stroke="none" vectornator:layerName="path"/>
<path d="M419.599 693.841C415.968 702.712 420.13 712.881 428.896 716.555C437.661 720.229 447.71 716.017 451.341 707.147C454.972 698.276 450.809 688.107 442.044 684.433C433.279 680.759 423.229 684.971 419.599 693.841Z" fill="#000000" fill-rule="nonzero" opacity="1" stroke="none" vectornator:layerName="path"/>
<path d="M577.338 308.382C573.707 317.252 577.869 327.421 586.635 331.095C595.4 334.77 605.449 330.557 609.08 321.687C612.711 312.817 608.548 302.647 599.783 298.973C591.018 295.299 580.969 299.511 577.338 308.382Z" fill="#000000" fill-rule="nonzero" opacity="1" stroke="none" vectornator:layerName="path"/>
<path d="M308.017 421.298C304.386 430.169 308.548 440.338 317.314 444.012C326.079 447.686 336.128 443.474 339.759 434.604C343.39 425.734 339.227 415.564 330.462 411.89C321.696 408.216 311.647 412.428 308.017 421.298Z" fill="#000000" fill-rule="nonzero" opacity="1" stroke="none" vectornator:layerName="path"/>
<path d="M688.93 580.94C685.3 589.811 689.462 599.98 698.228 603.654C706.993 607.328 717.042 603.116 720.673 594.246C724.304 585.376 720.141 575.206 711.376 571.532C702.61 567.858 692.561 572.07 688.93 580.94Z" fill="#000000" fill-rule="nonzero" opacity="1" stroke="none" vectornator:layerName="path"/>
<path d="M16.1467 799.65L16.1467 221.681C16.1467 101.272 112.62 3.64401 231.606 3.64401L802.726 3.64401C921.728 3.64401 1018.2 101.272 1018.2 221.681L1018.2 799.632C1018.2 920.058 921.728 1017.69 802.743 1017.69L231.589 1017.69C112.62 1017.69 16.1467 920.058 16.1467 799.65Z" fill="none" opacity="1" stroke="#000000" stroke-linecap="round" stroke-linejoin="miter" stroke-width="15.1181" vectornator:layerName="path"/>
</g>
<g id="图层-3" vectornator:layerName="图层 3">
<path d="M512 905.425L171.284 708.713L171.284 315.287L512 118.575L852.716 315.287L852.716 708.713L512 905.425Z" fill="#000000" fill-opacity="0.0045045" fill-rule="nonzero" opacity="1" stroke="#2565c2" stroke-linecap="butt" stroke-linejoin="miter" stroke-width="25.3906"/>
</g>
<g id="图层-1" vectornator:layerName="图层 1">
<path d="M247.056 338.157C236.265 338.157 227.525 346.808 227.525 357.469L227.525 461.157C227.525 471.819 236.265 480.438 247.056 480.438L773.931 480.438C784.723 480.438 793.463 471.819 793.463 461.157L793.463 357.469C793.463 346.808 784.723 338.157 773.931 338.157L247.056 338.157ZM483.806 365.094C504.772 365.094 519.817 378.327 521.494 396.657L521.556 397.188L503.963 397.188L503.713 396.188C501.676 386.664 494.589 380.438 483.806 380.438C469.969 380.438 461.119 391.566 461.119 409.657L461.119 409.719C461.119 427.93 469.969 439.188 483.806 439.188C494.229 439.188 501.564 433.213 503.9 422.969L503.994 422.344L521.619 422.344L521.556 423.032C519.879 441.422 504.712 454.532 483.806 454.532C458.528 454.532 442.681 437.636 442.681 409.782L442.681 409.719C442.681 381.865 458.588 365.094 483.806 365.094ZM281.088 366.594L302.369 366.594L332.494 453.032L313.494 453.032L306.963 432.063L276.431 432.063L269.9 453.032L250.9 453.032L281.088 366.594ZM354.088 366.594L389.806 366.594C409.215 366.594 420.713 376.879 420.713 394.251L420.713 394.376C420.713 405.757 414.641 415.227 405.056 419.001L423.275 453.032L402.806 453.032L386.681 421.688L372.181 421.688L372.181 453.032L354.088 453.032L354.088 366.594ZM545.494 366.594L563.588 366.594L563.588 438.126L601.4 438.126L601.4 453.032L545.494 453.032L545.494 366.594ZM624.838 366.594L682.119 366.594L682.119 381.501L642.931 381.501L642.931 402.219L679.9 402.219L679.9 416.376L642.931 416.376L642.931 438.126L682.119 438.126L682.119 453.032L624.838 453.032L624.838 366.594ZM703.588 366.594L771.713 366.594L771.713 381.501L746.681 381.501L746.681 453.032L728.588 453.032L728.588 381.501L703.588 381.501L703.588 366.594ZM372.181 380.719L372.181 407.969L387.806 407.969C396.792 407.969 402.181 402.882 402.181 394.376L402.181 394.251C402.181 385.984 396.513 380.719 387.588 380.719L372.181 380.719ZM291.525 383.376L280.619 418.532L302.775 418.532L291.869 383.376L291.525 383.376Z" fill="#2565c2" fill-rule="nonzero" opacity="1" stroke="none"/>
<path d="M596.082 708.501C601.021 708.501 604.98 706.992 607.959 703.974C610.938 700.956 612.427 696.977 612.427 692.038C612.427 687.177 610.938 683.277 607.959 680.337C604.98 677.397 601.021 675.927 596.082 675.927L590.202 675.927L590.202 663.462L596.082 663.462C601.021 663.462 604.98 661.992 607.959 659.052C610.938 656.112 612.427 652.251 612.427 647.469C612.427 642.53 610.938 638.551 607.959 635.533C604.98 632.514 601.021 631.005 596.082 631.005C591.221 631.005 587.321 632.514 584.381 635.533C581.441 638.551 579.971 642.53 579.971 647.469L579.971 653.349L567.858 653.349L567.858 647.469C567.858 642.53 566.388 638.551 563.448 635.533C560.509 632.514 556.608 631.005 551.748 631.005C546.809 631.005 542.849 632.514 539.87 635.533C536.891 638.551 535.402 642.53 535.402 647.469C535.402 652.251 536.891 656.112 539.87 659.052C542.849 661.992 546.809 663.462 551.748 663.462L557.51 663.462L557.51 675.927L551.748 675.927C546.809 675.927 542.849 677.397 539.87 680.337C536.891 683.277 535.402 687.177 535.402 692.038C535.402 696.977 536.891 700.956 539.87 703.974C542.849 706.992 546.809 708.501 551.748 708.501C556.608 708.501 560.509 706.992 563.448 703.974C566.388 700.956 567.858 696.977 567.858 692.038L567.858 686.276L579.971 686.276L579.971 692.038C579.971 696.977 581.441 700.956 584.381 703.974C587.321 706.992 591.221 708.501 596.082 708.501ZM590.202 686.04L596.082 686.04C597.963 686.04 599.453 686.589 600.55 687.687C601.648 688.784 602.197 690.235 602.197 692.038C602.197 693.919 601.648 695.429 600.55 696.565C599.453 697.702 597.963 698.271 596.082 698.271C594.357 698.271 592.946 697.702 591.848 696.565C590.75 695.429 590.202 693.919 590.202 692.038L590.202 686.04ZM557.51 686.04L557.51 692.038C557.51 693.763 556.961 695.233 555.864 696.448C554.766 697.663 553.394 698.271 551.748 698.271C549.866 698.271 548.377 697.702 547.279 696.565C546.181 695.429 545.633 693.919 545.633 692.038C545.633 690.235 546.181 688.784 547.279 687.687C548.377 686.589 549.866 686.04 551.748 686.04L557.51 686.04ZM579.971 676.162L567.858 676.162L567.858 663.462L579.971 663.462L579.971 676.162ZM590.202 653.349L590.202 647.469C590.202 645.587 590.75 644.078 591.848 642.941C592.946 641.805 594.357 641.236 596.082 641.236C597.963 641.236 599.453 641.805 600.55 642.941C601.648 644.078 602.197 645.587 602.197 647.469C602.197 649.272 601.648 650.703 600.55 651.761C599.453 652.819 597.963 653.349 596.082 653.349L590.202 653.349ZM557.51 653.349L551.748 653.349C549.866 653.349 548.377 652.819 547.279 651.761C546.181 650.703 545.633 649.272 545.633 647.469C545.633 645.587 546.181 644.078 547.279 642.941C548.377 641.805 549.866 641.236 551.748 641.236C553.472 641.236 554.864 641.805 555.922 642.941C556.981 644.078 557.51 645.587 557.51 647.469L557.51 653.349ZM419.099 640.766C419.099 642.726 419.785 644.372 421.157 645.705C422.529 647.038 424.155 647.704 426.037 647.704L497.771 647.704C499.652 647.704 501.26 647.038 502.592 645.705C503.925 644.372 504.591 642.726 504.591 640.766C504.591 638.806 503.925 637.14 502.592 635.768C501.26 634.396 499.652 633.71 497.771 633.71L426.037 633.71C424.155 633.71 422.529 634.396 421.157 635.768C419.785 637.14 419.099 638.806 419.099 640.766ZM419.099 669.812C419.099 671.772 419.785 673.438 421.157 674.81C422.529 676.182 424.155 676.868 426.037 676.868L497.771 676.868C499.652 676.868 501.26 676.182 502.592 674.81C503.925 673.438 504.591 671.772 504.591 669.812C504.591 667.852 503.925 666.206 502.592 664.873C501.26 663.54 499.652 662.874 497.771 662.874L426.037 662.874C424.155 662.874 422.529 663.54 421.157 664.873C419.785 666.206 419.099 667.852 419.099 669.812ZM419.099 698.976C419.099 700.858 419.785 702.484 421.157 703.856C422.529 705.228 424.155 705.914 426.037 705.914L497.771 705.914C499.652 705.914 501.26 705.228 502.592 703.856C503.925 702.484 504.591 700.858 504.591 698.976C504.591 697.016 503.925 695.35 502.592 693.978C501.26 692.606 499.652 691.92 497.771 691.92L426.037 691.92C424.155 691.92 422.529 692.606 421.157 693.978C419.785 695.35 419.099 697.016 419.099 698.976ZM410.632 582.556C407.731 582.556 405.262 581.497 403.223 579.38C401.185 577.264 400.166 574.833 400.166 572.089C400.166 569.346 401.185 566.915 403.223 564.798C405.262 562.682 407.731 561.623 410.632 561.623C413.533 561.623 416.022 562.682 418.099 564.798C420.177 566.915 421.215 569.346 421.215 572.089C421.215 574.833 420.177 577.264 418.099 579.38C416.022 581.497 413.533 582.556 410.632 582.556ZM444.382 582.556C441.481 582.556 439.012 581.517 436.973 579.439C434.935 577.362 433.916 574.912 433.916 572.089C433.916 569.346 434.935 566.915 436.973 564.798C439.012 562.682 441.481 561.623 444.382 561.623C447.283 561.623 449.772 562.682 451.849 564.798C453.927 566.915 454.966 569.346 454.966 572.089C454.966 574.912 453.927 577.362 451.849 579.439C449.772 581.517 447.283 582.556 444.382 582.556ZM478.132 582.556C475.231 582.556 472.762 581.517 470.724 579.439C468.685 577.362 467.666 574.912 467.666 572.089C467.666 569.346 468.685 566.915 470.724 564.798C472.762 562.682 475.231 561.623 478.132 561.623C481.033 561.623 483.502 562.682 485.541 564.798C487.579 566.915 488.598 569.346 488.598 572.089C488.598 574.912 487.579 577.362 485.541 579.439C483.502 581.517 481.033 582.556 478.132 582.556ZM373.354 722.495C373.354 734.647 376.431 743.761 382.585 749.837C388.739 755.912 397.971 758.95 410.279 758.95L613.721 758.95C626.108 758.95 635.359 755.912 641.474 749.837C647.589 743.761 650.646 734.647 650.646 722.495L650.646 578.91C650.646 566.758 647.589 557.645 641.474 551.569C635.359 545.493 626.108 542.455 613.721 542.455L410.279 542.455C397.971 542.455 388.739 545.493 382.585 551.569C376.431 557.645 373.354 566.758 373.354 578.91L373.354 722.495ZM392.287 721.555L392.287 601.724L631.713 601.724L631.713 721.555C631.713 727.67 630.126 732.276 626.951 735.372C623.775 738.469 619.287 740.017 613.486 740.017L410.514 740.017C404.634 740.017 400.127 738.469 396.991 735.372C393.855 732.276 392.287 727.67 392.287 721.555Z" fill="#2565c2" opacity="0" stroke="none"/>
<path d="M387.55 762.751L634.776 762.751C646.579 762.751 655.64 759.674 661.959 753.522C668.279 747.37 671.439 738.392 671.439 726.59L671.439 624.008L651.224 644.223L651.224 727.594C651.224 732.784 649.801 736.802 646.955 739.648C644.109 742.494 640.091 743.917 634.902 743.917L387.424 743.917C382.235 743.917 378.217 742.494 375.371 739.648C372.525 736.802 371.102 732.784 371.102 727.594L371.102 621.999C371.102 611.117 376.543 605.676 387.424 605.676L592.086 605.676L611.045 586.842L387.55 586.842C375.747 586.842 366.686 589.897 360.366 596.008C354.047 602.119 350.887 611.117 350.887 623.003L350.887 726.59C350.887 738.392 354.047 747.37 360.366 753.522C366.686 759.674 375.747 762.751 387.55 762.751ZM568.481 681.263L594.095 669.962L704.712 559.47L687.009 542.018L576.642 652.51L564.588 677.245C564.002 678.333 564.212 679.421 565.216 680.509C566.221 681.597 567.309 681.849 568.481 681.263ZM714.004 550.053L723.421 540.511C725.597 538.251 726.706 535.719 726.748 532.915C726.79 530.11 725.723 527.62 723.546 525.444L720.533 522.43C718.524 520.421 716.117 519.501 713.313 519.668C710.509 519.835 708.061 520.966 705.968 523.058L696.551 532.35L714.004 550.053ZM417.559 692.689C422.497 692.689 426.724 690.931 430.24 687.415C433.756 683.899 435.514 679.672 435.514 674.734C435.514 669.795 433.756 665.568 430.24 662.052C426.724 658.536 422.497 656.779 417.559 656.779C412.62 656.779 408.393 658.536 404.877 662.052C401.362 665.568 399.604 669.795 399.604 674.734C399.604 679.672 401.362 683.899 404.877 687.415C408.393 690.931 412.62 692.689 417.559 692.689ZM471.675 692.689C476.613 692.689 480.84 690.931 484.356 687.415C487.872 683.899 489.63 679.672 489.63 674.734C489.63 669.795 487.872 665.568 484.356 662.052C480.84 658.536 476.613 656.779 471.675 656.779C466.736 656.779 462.509 658.536 458.993 662.052C455.478 665.568 453.72 669.795 453.72 674.734C453.72 679.672 455.478 683.899 458.993 687.415C462.509 690.931 466.736 692.689 471.675 692.689ZM525.791 692.689C530.729 692.689 534.956 690.931 538.472 687.415C541.988 683.899 543.746 679.672 543.746 674.734C543.746 669.795 541.988 665.568 538.472 662.052C534.956 658.536 530.729 656.779 525.791 656.779C520.852 656.779 516.625 658.536 513.109 662.052C509.594 665.568 507.836 669.795 507.836 674.734C507.836 679.672 509.594 683.899 513.109 687.415C516.625 690.931 520.852 692.689 525.791 692.689Z" fill="#2565c2" opacity="0" stroke="none"/>
<path d="M429.094 604.335C432.152 604.335 434.739 603.257 436.856 601.101C438.973 598.945 440.031 596.377 440.031 593.398C440.031 590.341 438.973 587.754 436.856 585.637C434.739 583.52 432.152 582.462 429.094 582.462C426.194 582.462 423.646 583.54 421.451 585.696C419.256 587.852 418.158 590.419 418.158 593.398C418.158 596.299 419.256 598.847 421.451 601.042C423.646 603.237 426.194 604.335 429.094 604.335ZM464.609 600.572L599.139 600.572C601.256 600.572 603.02 599.866 604.431 598.455C605.842 597.044 606.548 595.358 606.548 593.398C606.548 591.36 605.822 589.616 604.372 588.165C602.922 586.715 601.177 585.99 599.139 585.99L464.609 585.99C462.57 585.99 460.826 586.715 459.376 588.165C457.925 589.616 457.2 591.36 457.2 593.398C457.2 595.358 457.906 597.044 459.317 598.455C460.728 599.866 462.492 600.572 464.609 600.572ZM429.094 640.319C432.152 640.319 434.739 639.261 436.856 637.144C438.973 635.027 440.031 632.44 440.031 629.383C440.031 626.325 438.973 623.738 436.856 621.621C434.739 619.505 432.152 618.446 429.094 618.446C426.194 618.446 423.646 619.524 421.451 621.68C419.256 623.836 418.158 626.404 418.158 629.383C418.158 632.362 419.256 634.929 421.451 637.085C423.646 639.241 426.194 640.319 429.094 640.319ZM464.609 636.674L539.165 636.674C541.203 636.674 542.928 635.968 544.339 634.557C545.75 633.146 546.456 631.421 546.456 629.383C546.456 627.344 545.75 625.6 544.339 624.15C542.928 622.699 541.203 621.974 539.165 621.974L464.609 621.974C462.57 621.974 460.826 622.699 459.376 624.15C457.925 625.6 457.2 627.344 457.2 629.383C457.2 631.421 457.925 633.146 459.376 634.557C460.826 635.968 462.57 636.674 464.609 636.674ZM429.094 676.186C432.152 676.186 434.739 675.128 436.856 673.011C438.973 670.894 440.031 668.307 440.031 665.25C440.031 662.271 438.973 659.723 436.856 657.606C434.739 655.489 432.152 654.431 429.094 654.431C426.115 654.431 423.548 655.489 421.392 657.606C419.236 659.723 418.158 662.271 418.158 665.25C418.158 668.307 419.236 670.894 421.392 673.011C423.548 675.128 426.115 676.186 429.094 676.186ZM464.609 672.658L599.139 672.658C601.256 672.658 603.02 671.953 604.431 670.542C605.842 669.13 606.548 667.366 606.548 665.25C606.548 663.29 605.842 661.604 604.431 660.193C603.02 658.782 601.256 658.076 599.139 658.076L464.609 658.076C462.492 658.076 460.728 658.782 459.317 660.193C457.906 661.604 457.2 663.29 457.2 665.25C457.2 667.366 457.906 669.13 459.317 670.542C460.728 671.953 462.492 672.658 464.609 672.658ZM429.094 713.935C432.152 713.935 434.739 712.857 436.856 710.701C438.973 708.545 440.031 705.977 440.031 702.998C440.031 699.941 438.973 697.334 436.856 695.178C434.739 693.022 432.152 691.944 429.094 691.944C426.194 691.944 423.646 693.042 421.451 695.237C419.256 697.432 418.158 700.019 418.158 702.998C418.158 705.899 419.256 708.447 421.451 710.642C423.646 712.837 426.194 713.935 429.094 713.935ZM464.609 710.289L539.165 710.289C541.203 710.289 542.928 709.564 544.339 708.114C545.75 706.663 546.456 704.958 546.456 702.998C546.456 700.96 545.75 699.235 544.339 697.824C542.928 696.413 541.203 695.707 539.165 695.707L464.609 695.707C462.492 695.707 460.728 696.413 459.317 697.824C457.906 699.235 457.2 700.96 457.2 702.998C457.2 704.958 457.925 706.663 459.376 708.114C460.826 709.564 462.57 710.289 464.609 710.289ZM410.279 756.622L613.721 756.622C626.108 756.622 635.359 753.584 641.474 747.509C647.589 741.433 650.646 732.319 650.646 720.167L650.646 576.582C650.646 564.43 647.589 555.317 641.474 549.241C635.359 543.165 626.108 540.127 613.721 540.127L410.279 540.127C397.971 540.127 388.739 543.165 382.585 549.241C376.431 555.317 373.354 564.43 373.354 576.582L373.354 720.167C373.354 732.319 376.431 741.433 382.585 747.509C388.739 753.584 397.971 756.622 410.279 756.622ZM410.514 737.689C404.634 737.689 400.127 736.141 396.991 733.044C393.855 729.947 392.287 725.342 392.287 719.227L392.287 577.523C392.287 571.408 393.855 566.802 396.991 563.705C400.127 560.608 404.634 559.06 410.514 559.06L613.486 559.06C619.287 559.06 623.775 560.608 626.951 563.705C630.126 566.802 631.713 571.408 631.713 577.523L631.713 719.227C631.713 725.342 630.126 729.947 626.951 733.044C623.775 736.141 619.287 737.689 613.486 737.689L410.514 737.689Z" fill="#2565c2" opacity="0" stroke="none"/>
<path d="M410.279 757.871L613.721 757.871C626.108 757.871 635.359 754.833 641.474 748.757C647.589 742.681 650.646 733.568 650.646 721.416L650.646 577.831C650.646 565.679 647.589 556.565 641.474 550.49C635.359 544.414 626.108 541.376 613.721 541.376L410.279 541.376C397.971 541.376 388.739 544.414 382.585 550.49C376.431 556.565 373.354 565.679 373.354 577.831L373.354 721.416C373.354 733.568 376.431 742.681 382.585 748.757C388.739 754.833 397.971 757.871 410.279 757.871ZM410.514 738.938C404.634 738.938 400.127 737.39 396.991 734.293C393.855 731.196 392.287 726.59 392.287 720.475L392.287 578.772C392.287 572.657 393.855 568.051 396.991 564.954C400.127 561.857 404.634 560.309 410.514 560.309L613.486 560.309C619.287 560.309 623.775 561.857 626.951 564.954C630.126 568.051 631.713 572.657 631.713 578.772L631.713 720.475C631.713 726.59 630.126 731.196 626.951 734.293C623.775 737.39 619.287 738.938 613.486 738.938L410.514 738.938ZM424.038 632.043C421.764 633.454 420.451 635.198 420.098 637.276C419.746 639.353 420.098 641.294 421.157 643.097C422.215 644.9 423.783 646.115 425.861 646.742C427.938 647.37 430.231 646.86 432.74 645.214L466.608 624.046C468.803 622.635 470.253 620.753 470.959 618.402C471.664 616.05 471.645 613.717 470.9 611.405C470.155 609.092 468.724 607.269 466.608 605.936L432.74 584.769C430.231 583.123 427.938 582.593 425.861 583.181C423.783 583.769 422.195 584.965 421.098 586.768C420 588.571 419.648 590.531 420.04 592.648C420.432 594.765 421.764 596.529 424.038 597.94L452.379 614.991L424.038 632.043ZM473.664 645.214C473.664 647.252 474.389 649.016 475.839 650.505C477.289 651.995 479.073 652.74 481.19 652.74L525.994 652.74C528.111 652.74 529.894 651.995 531.345 650.505C532.795 649.016 533.52 647.252 533.52 645.214C533.52 643.018 532.795 641.196 531.345 639.745C529.894 638.295 528.111 637.57 525.994 637.57L481.19 637.57C479.073 637.57 477.289 638.295 475.839 639.745C474.389 641.196 473.664 643.018 473.664 645.214Z" fill="#2565c2" opacity="1" stroke="none"/>
<path d="M424.743 648.615L434.621 648.615C437.914 648.615 439.561 646.969 439.561 643.676L439.561 633.681C439.561 630.466 437.914 628.859 434.621 628.859L424.743 628.859C421.451 628.859 419.804 630.466 419.804 633.681L419.804 643.676C419.804 646.969 421.451 648.615 424.743 648.615ZM457.67 648.615L467.666 648.615C470.88 648.615 472.488 646.969 472.488 643.676L472.488 633.681C472.488 630.466 470.88 628.859 467.666 628.859L457.67 628.859C454.456 628.859 452.849 630.466 452.849 633.681L452.849 643.676C452.849 646.969 454.456 648.615 457.67 648.615ZM490.597 648.615L500.476 648.615C503.768 648.615 505.415 646.969 505.415 643.676L505.415 633.681C505.415 630.466 503.768 628.859 500.476 628.859L490.597 628.859C487.383 628.859 485.776 630.466 485.776 633.681L485.776 643.676C485.776 646.969 487.383 648.615 490.597 648.615ZM523.524 648.615L533.52 648.615C536.656 648.615 538.224 646.969 538.224 643.676L538.224 633.681C538.224 630.466 536.656 628.859 533.52 628.859L523.524 628.859C520.232 628.859 518.585 630.466 518.585 633.681L518.585 643.676C518.585 646.969 520.232 648.615 523.524 648.615ZM556.334 648.615L566.33 648.615C569.622 648.615 571.269 646.969 571.269 643.676L571.269 633.681C571.269 630.466 569.622 628.859 566.33 628.859L556.334 628.859C553.198 628.859 551.63 630.466 551.63 633.681L551.63 643.676C551.63 646.969 553.198 648.615 556.334 648.615ZM589.379 648.615L599.257 648.615C602.549 648.615 604.196 646.969 604.196 643.676L604.196 633.681C604.196 630.466 602.549 628.859 599.257 628.859L589.379 628.859C586.086 628.859 584.439 630.466 584.439 633.681L584.439 643.676C584.439 646.969 586.086 648.615 589.379 648.615ZM424.743 681.543L434.621 681.543C437.914 681.543 439.561 679.896 439.561 676.603L439.561 666.725C439.561 663.511 437.914 661.904 434.621 661.904L424.743 661.904C421.451 661.904 419.804 663.511 419.804 666.725L419.804 676.603C419.804 679.896 421.451 681.543 424.743 681.543ZM457.67 681.543L467.666 681.543C470.88 681.543 472.488 679.896 472.488 676.603L472.488 666.725C472.488 663.511 470.88 661.904 467.666 661.904L457.67 661.904C454.456 661.904 452.849 663.511 452.849 666.725L452.849 676.603C452.849 679.896 454.456 681.543 457.67 681.543ZM490.597 681.543L500.476 681.543C503.768 681.543 505.415 679.896 505.415 676.603L505.415 666.725C505.415 663.511 503.768 661.904 500.476 661.904L490.597 661.904C487.383 661.904 485.776 663.511 485.776 666.725L485.776 676.603C485.776 679.896 487.383 681.543 490.597 681.543ZM523.524 681.543L533.52 681.543C536.656 681.543 538.224 679.896 538.224 676.603L538.224 666.725C538.224 663.511 536.656 661.904 533.52 661.904L523.524 661.904C520.232 661.904 518.585 663.511 518.585 666.725L518.585 676.603C518.585 679.896 520.232 681.543 523.524 681.543ZM556.334 681.543L566.33 681.543C569.622 681.543 571.269 679.896 571.269 676.603L571.269 666.725C571.269 663.511 569.622 661.904 566.33 661.904L556.334 661.904C553.198 661.904 551.63 663.511 551.63 666.725L551.63 676.603C551.63 679.896 553.198 681.543 556.334 681.543ZM589.379 681.543L599.257 681.543C602.549 681.543 604.196 679.896 604.196 676.603L604.196 666.725C604.196 663.511 602.549 661.904 599.257 661.904L589.379 661.904C586.086 661.904 584.439 663.511 584.439 666.725L584.439 676.603C584.439 679.896 586.086 681.543 589.379 681.543ZM424.743 714.587L434.621 714.587C437.914 714.587 439.561 712.941 439.561 709.648L439.561 699.77C439.561 696.477 437.914 694.831 434.621 694.831L424.743 694.831C421.451 694.831 419.804 696.477 419.804 699.77L419.804 709.648C419.804 712.941 421.451 714.587 424.743 714.587ZM458.729 714.587L565.271 714.587C569.27 714.587 571.269 712.588 571.269 708.59L571.269 700.828C571.269 696.83 569.27 694.831 565.271 694.831L458.729 694.831C454.809 694.831 452.849 696.83 452.849 700.828L452.849 708.59C452.849 712.588 454.809 714.587 458.729 714.587ZM589.379 714.587L599.257 714.587C602.549 714.587 604.196 712.941 604.196 709.648L604.196 699.77C604.196 696.477 602.549 694.831 599.257 694.831L589.379 694.831C586.086 694.831 584.439 696.477 584.439 699.77L584.439 709.648C584.439 712.941 586.086 714.587 589.379 714.587ZM410.632 583.349C407.731 583.349 405.262 582.291 403.223 580.174C401.185 578.058 400.166 575.627 400.166 572.883C400.166 570.139 401.185 567.709 403.223 565.592C405.262 563.476 407.731 562.417 410.632 562.417C413.533 562.417 416.022 563.476 418.099 565.592C420.177 567.709 421.215 570.139 421.215 572.883C421.215 575.627 420.177 578.058 418.099 580.174C416.022 582.291 413.533 583.349 410.632 583.349ZM444.382 583.349C441.481 583.349 439.012 582.311 436.973 580.233C434.935 578.156 433.916 575.706 433.916 572.883C433.916 570.139 434.935 567.709 436.973 565.592C439.012 563.476 441.481 562.417 444.382 562.417C447.283 562.417 449.772 563.476 451.849 565.592C453.927 567.709 454.966 570.139 454.966 572.883C454.966 575.706 453.927 578.156 451.849 580.233C449.772 582.311 447.283 583.349 444.382 583.349ZM478.132 583.349C475.231 583.349 472.762 582.311 470.724 580.233C468.685 578.156 467.666 575.706 467.666 572.883C467.666 570.139 468.685 567.709 470.724 565.592C472.762 563.476 475.231 562.417 478.132 562.417C481.033 562.417 483.502 563.476 485.541 565.592C487.579 567.709 488.598 570.139 488.598 572.883C488.598 575.706 487.579 578.156 485.541 580.233C483.502 582.311 481.033 583.349 478.132 583.349ZM373.354 723.289C373.354 735.441 376.431 744.555 382.585 750.63C388.739 756.706 397.971 759.744 410.279 759.744L613.721 759.744C626.108 759.744 635.359 756.706 641.474 750.63C647.589 744.555 650.646 735.441 650.646 723.289L650.646 579.704C650.646 567.552 647.589 558.439 641.474 552.363C635.359 546.287 626.108 543.249 613.721 543.249L410.279 543.249C397.971 543.249 388.739 546.287 382.585 552.363C376.431 558.439 373.354 567.552 373.354 579.704L373.354 723.289ZM392.287 722.349L392.287 602.518L631.713 602.518L631.713 722.349C631.713 728.464 630.126 733.069 626.951 736.166C623.775 739.263 619.287 740.811 613.486 740.811L410.514 740.811C404.634 740.811 400.127 739.263 396.991 736.166C393.855 733.069 392.287 728.464 392.287 722.349Z" fill="#2565c2" opacity="0" stroke="none"/>
<g opacity="0">
<path d="M372.349 569.059L372.349 740.937C372.349 759.199 386.314 773.164 404.576 773.164L619.424 773.164C637.686 773.164 651.651 759.199 651.651 740.937L651.651 569.059C651.651 550.797 637.686 536.832 619.424 536.832L404.576 536.832C386.314 536.832 372.349 550.797 372.349 569.059ZM393.834 590.544L630.166 590.544L630.166 740.937C630.166 747.382 625.869 751.679 619.424 751.679L404.576 751.679C398.131 751.679 393.834 747.382 393.834 740.937L393.834 590.544Z" fill="#2565c2" fill-rule="nonzero" opacity="1" stroke="none" vectornator:layerName="path"/>
<path d="M458.288 633.513L426.061 671.111L458.288 708.71M565.712 708.71L597.939 671.111L565.712 633.513" fill="none" opacity="1" stroke="#2565c2" stroke-linecap="butt" stroke-linejoin="miter" stroke-width="21.4848" vectornator:layerName="path"/>
<path d="M544.227 612.028L522.742 612.028L479.773 730.195L501.258 730.195L544.227 612.028Z" fill="#2565c2" fill-rule="nonzero" opacity="1" stroke="none" vectornator:layerName="path"/>
</g>
<path d="M512 671.863C514.352 671.863 516.723 671.471 519.115 670.687C521.506 669.903 524.112 668.688 526.935 667.042L618.895 613.653C623.677 610.831 627.088 608.224 629.126 605.833C631.164 603.442 632.184 600.6 632.184 597.307C632.184 594.093 631.164 591.29 629.126 588.899C627.088 586.508 623.677 583.901 618.895 581.079L526.935 527.69C524.112 526.044 521.506 524.828 519.115 524.044C516.723 523.26 514.352 522.868 512 522.868C509.57 522.868 507.179 523.26 504.827 524.044C502.475 524.828 499.888 526.044 497.065 527.69L404.987 581.079C400.283 583.901 396.912 586.508 394.874 588.899C392.836 591.29 391.816 594.093 391.816 597.307C391.816 600.6 392.836 603.442 394.874 605.833C396.912 608.224 400.283 610.831 404.987 613.653L497.065 667.042C499.888 668.688 502.475 669.903 504.827 670.687C507.179 671.471 509.57 671.863 512 671.863ZM512 651.401C510.432 651.401 508.668 650.853 506.708 649.755L417.217 598.483C416.668 598.169 416.394 597.777 416.394 597.307C416.394 596.915 416.668 596.562 417.217 596.249L506.708 544.977C508.668 543.879 510.432 543.33 512 543.33C513.49 543.33 515.214 543.879 517.174 544.977L606.665 596.249C607.292 596.562 607.606 596.915 607.606 597.307C607.606 597.777 607.292 598.169 606.665 598.483L517.174 649.755C515.214 650.853 513.49 651.401 512 651.401ZM569.975 633.174L606.665 654.106C607.292 654.42 607.606 654.812 607.606 655.282C607.606 655.752 607.292 656.144 606.665 656.458L517.174 707.613C515.214 708.71 513.49 709.259 512 709.259C510.432 709.259 508.668 708.71 506.708 707.613L417.217 656.458C416.668 656.144 416.394 655.752 416.394 655.282C416.394 654.812 416.668 654.42 417.217 654.106L456.847 631.41L438.032 619.886L404.987 638.936C400.283 641.758 396.912 644.385 394.874 646.815C392.836 649.245 391.816 652.068 391.816 655.282C391.816 658.496 392.836 661.319 394.874 663.749C396.912 666.179 400.283 668.766 404.987 671.51L497.065 725.017C499.888 726.663 502.475 727.878 504.827 728.662C507.179 729.446 509.57 729.838 512 729.838C514.352 729.838 516.723 729.446 519.115 728.662C521.506 727.878 524.112 726.663 526.935 725.017L618.895 671.51C623.677 668.766 627.088 666.179 629.126 663.749C631.164 661.319 632.184 658.496 632.184 655.282C632.184 652.068 631.164 649.245 629.126 646.815C627.088 644.385 623.677 641.758 618.895 638.936L588.203 621.061L569.975 633.174ZM572.562 688.797L606.665 708.318C607.292 708.632 607.606 708.985 607.606 709.376C607.606 709.847 607.292 710.239 606.665 710.552L517.174 761.825C515.214 762.922 513.49 763.471 512 763.471C510.432 763.471 508.668 762.922 506.708 761.825L417.217 710.552C416.668 710.239 416.394 709.847 416.394 709.376C416.394 708.985 416.668 708.632 417.217 708.318L454.143 687.268L434.386 676.097L404.987 693.148C400.283 695.97 396.912 698.577 394.874 700.968C392.836 703.359 391.816 706.162 391.816 709.376C391.816 712.669 392.836 715.511 394.874 717.902C396.912 720.293 400.283 722.9 404.987 725.722L497.065 779.111C499.888 780.758 502.475 781.973 504.827 782.757C507.179 783.541 509.57 783.933 512 783.933C514.352 783.933 516.723 783.541 519.115 782.757C521.506 781.973 524.112 780.758 526.935 779.111L618.895 725.722C623.677 722.9 627.088 720.293 629.126 717.902C631.164 715.511 632.184 712.669 632.184 709.376C632.184 706.162 631.164 703.359 629.126 700.968C627.088 698.577 623.677 695.97 618.895 693.148L590.907 676.802L572.562 688.797Z" fill="#2565c2" opacity="0" stroke="none"/>
</g>
</svg>
